# xmcd
#
# Track frame offsets:
#	150
#	20537
#	48990
#	77414
#	97390
#	129422
#	158894
#	186091
#	202770
#
# Disc length: 2988 seconds
#
# Revision: 2
# Processed by: cddbd v1.5.2PL0 Copyright (c) Steve Scherf et al.
# Submitted via: audiograbber 1.83.01
#
DISCID=6c0baa09
DTITLE=T-Bone - Das T-Bone Projekt
DYEAR=2011
DGENRE=Blues
TTITLE0=T-Bone Shuffle
TTITLE1=Hard Times
TTITLE2=Mean Old World
TTITLE3=Papa Ain't Salty
TTITLE4=Reconsider
TTITLE5=I Wish You Where Mine
TTITLE6=Cold Feeling
TTITLE7=Evening
TTITLE8=Your Wig is Gone
EXTD=
EXTT0=
EXTT1=
EXTT2=
EXTT3=
EXTT4=
EXTT5=
EXTT6=
EXTT7=
EXTT8=
PLAYORDER=
